# xmcd
#
# Track frame offsets:
#	150
#	19392
#	35065
#	50202
#	72840
#	91950
#	107740
#	127395
#	145397
#	163262
#	185510
#	204390
#	229552
#	246562
#
# Disc length: 3465
#
# Revision: 2
# Processed by: cddbd v1.5.1PL0 Copyright (c) Steve Scherf et al.
# Submitted via: CDex 1.30
# Normalized: r1:TRMNUM
#
DISCID=db0d870e
DTITLE=Eagles - The Second Collection
DYEAR=1988
DGENRE=Country
TTITLE0=Weechy woman
TTITLE1=Doolin Dalton
TTITLE2=Saturday night
TTITLE3=Bitter creek
TTITLE4=Already gone
TTITLE5=My man
TTITLE6=Ol'55
TTITLE7=Midnight flyer
TTITLE8=After the thrill has gone
TTITLE9=Wasted time
TTITLE10=Victim of love
TTITLE11=The sad cafe
TTITLE12=In the city
TTITLE13=Please come home for Christmas
EXTD=YEAR: 1988  ID3G:   2
EXTT0=
EXTT1=
EXTT2=
EXTT3=
EXTT4=
EXTT5=
EXTT6=
EXTT7=
EXTT8=
EXTT9=
EXTT10=
EXTT11=
EXTT12=
EXTT13=
PLAYORDER=
